{
  "accessors": [
    {
      "bufferView": 2,
      "componentType": 5126,
      "count": 8448,
      "max": [
        0.017371999099850655,
        -0.016836000606417656,
        0.6034619808197021
      ],
      "min": [
        -0.01773899979889393,
        -0.029778800904750824,
        0.5865849852561951
      ],
      "type": "VEC3"
    },
    {
      "bufferView": 2,
      "byteOffset": 101376,
      "componentType": 5126,
      "count": 8448,
      "max": [
        0.9997199177742004,
        0.9999402761459351,
        0.9998144507408142
      ],
      "min": [
        -0.9997470378875732,
        -0.9999753832817078,
        -0.9997014999389648
      ],
      "type": "VEC3"
    },
    {
      "bufferView": 1,
      "componentType": 5126,
      "count": 8448,
      "max": [
        0.5005859732627869,
        0.9623749852180481
      ],
      "min": [
        0.4795509874820709,
        0.7937420010566711
      ],
      "type": "VEC2"
    },
    {
      "bufferView": 0,
      "componentType": 5125,
      "count": 50688,
      "type": "SCALAR"
    },
    {
      "bufferView": 2,
      "byteOffset": 202752,
      "componentType": 5126,
      "count": 1602,
      "max": [
        0.027845999225974083,
        0.042884599417448044,
        0.6305320262908936
      ],
      "min": [
        -0.027837999165058136,
        -0.0290157999843359,
        0.5869609713554382
      ],
      "type": "VEC3"
    },
    {
      "bufferView": 2,
      "byteOffset": 221976,
      "componentType": 5126,
      "count": 1602,
      "max": [
        0.9996901154518127,
        0.9990955591201782,
        0.9989280700683594
      ],
      "min": [
        -0.9947927594184875,
        -0.9995116591453552,
        -1.0
      ],
      "type": "VEC3"
    },
    {
      "bufferView": 1,
      "byteOffset": 67584,
      "componentType": 5126,
      "count": 1602,
      "max": [
        0.9458860158920288,
        0.8209069967269897
      ],
      "min": [
        0.04421199858188629,
        0.11601000279188156
      ],
      "type": "VEC2"
    },
    {
      "bufferView": 0,
      "byteOffset": 202752,
      "componentType": 5125,
      "count": 3057,
      "type": "SCALAR"
    },
    {
      "bufferView": 2,
      "byteOffset": 241200,
      "componentType": 5126,
      "count": 5596,
      "max": [
        0.02450300008058548,
        -0.017389100044965744,
        0.6030129790306091
      ],
      "min": [
        -0.024059999734163284,
        -0.034320201724767685,
        0.579816997051239
      ],
      "type": "VEC3"
    },
    {
      "bufferView": 2,
      "byteOffset": 308352,
      "componentType": 5126,
      "count": 5596,
      "max": [
        1.0,
        0.9998462200164795,
        0.997731626033783
      ],
      "min": [
        -1.0,
        -0.9998657703399658,
        -0.9999470114707947
      ],
      "type": "VEC3"
    },
    {
      "bufferView": 3,
      "componentType": 5126,
      "count": 5596,
      "max": [
        1.0,
        0.9999997615814209,
        0.9999682903289795,
        1.0
      ],
      "min": [
        -1.0,
        -0.9999997615814209,
        -0.9999920725822449,
        -1.0
      ],
      "type": "VEC4"
    },
    {
      "bufferView": 1,
      "byteOffset": 80400,
      "componentType": 5126,
      "count": 5596,
      "max": [
        0.8254910111427307,
        0.8423069715499878
      ],
      "min": [
        0.16015100479125977,
        0.048850998282432556
      ],
      "type": "VEC2"
    },
    {
      "bufferView": 0,
      "byteOffset": 214980,
      "componentType": 5125,
      "count": 14415,
      "type": "SCALAR"
    },
    {
      "bufferView": 2,
      "byteOffset": 375504,
      "componentType": 5126,
      "count": 10752,
      "max": [
        0.025357000529766083,
        -0.024855300784111023,
        0.5928279757499695
      ],
      "min": [
        -0.025040000677108765,
        -0.036116600036621094,
        0.5772510170936584
      ],
      "type": "VEC3"
    },
    {
      "bufferView": 2,
      "byteOffset": 504528,
      "componentType": 5126,
      "count": 10752,
      "max": [
        0.9999901056289673,
        0.9999998211860657,
        0.9999999403953552
      ],
      "min": [
        -0.9999932646751404,
        -0.9999998211860657,
        -1.0
      ],
      "type": "VEC3"
    },
    {
      "bufferView": 1,
      "byteOffset": 125168,
      "componentType": 5126,
      "count": 10752,
      "max": [
        0.5871070027351379,
        0.9216920137405396
      ],
      "min": [
        0.3793039917945862,
        0.04305899888277054
      ],
      "type": "VEC2"
    },
    {
      "bufferView": 0,
      "byteOffset": 272640,
      "componentType": 5125,
      "count": 69120,
      "type": "SCALAR"
    },
    {
      "bufferView": 2,
      "byteOffset": 633552,
      "componentType": 5126,
      "count": 1980,
      "max": [
        0.03517499938607216,
        -0.02519950084388256,
        0.5926460027694702
      ],
      "min": [
        -0.035006001591682434,
        -0.047164399176836014,
        0.562483012676239
      ],
      "type": "VEC3"
    },
    {
      "bufferView": 2,
      "byteOffset": 657312,
      "componentType": 5126,
      "count": 1980,
      "max": [
        0.9999982714653015,
        0.7972772121429443,
        0.7979428172111511
      ],
      "min": [
        -0.9999996423721313,
        -0.7971587181091309,
        -0.79655522108078
      ],
      "type": "VEC3"
    },
    {
      "bufferView": 1,
      "byteOffset": 211184,
      "componentType": 5126,
      "count": 1980,
      "max": [
        0.8185700178146362,
        0.947022020816803
      ],
      "min": [
        0.13159500062465668,
        0.060068000108003616
      ],
      "type": "VEC2"
    },
    {
      "bufferView": 0,
      "byteOffset": 549120,
      "componentType": 5125,
      "count": 5148,
      "type": "SCALAR"
    },
    {
      "bufferView": 2,
      "byteOffset": 681072,
      "componentType": 5126,
      "count": 248,
      "max": [
        0.026680000126361847,
        -0.022799599915742874,
        0.5958470106124878
      ],
      "min": [
        -0.026554999873042107,
        -0.0356626994907856,
        0.5780959725379944
      ],
      "type": "VEC3"
    },
    {
      "bufferView": 2,
      "byteOffset": 684048,
      "componentType": 5126,
      "count": 248,
      "max": [
        0.8768791556358337,
        0.812466025352478,
        0.8119242191314697
      ],
      "min": [
        -0.8768774271011353,
        -0.8127235770225525,
        -0.8129225969314575
      ],
      "type": "VEC3"
    },
    {
      "bufferView": 1,
      "byteOffset": 227024,
      "componentType": 5126,
      "count": 248,
      "max": [
        0.9669709801673889,
        0.6631789803504944
      ],
      "min": [
        0.018029000610113144,
        0.34682101011276245
      ],
      "type": "VEC2"
    },
    {
      "bufferView": 0,
      "byteOffset": 569712,
      "componentType": 5125,
      "count": 708,
      "type": "SCALAR"
    }
  ],
  "asset": {
    "extras": {
      "author": "leoni (https://sketchfab.com/leoni)",
      "license": "CC-BY-4.0 (http://creativecommons.org/licenses/by/4.0/)",
      "source": "https://sketchfab.com/3d-models/corn-necklace-bf49415565174daeb0fe9d2bf4e30b24",
      "title": "Corn necklace"
    },
    "generator": "Sketchfab-15.25.0",
    "version": "2.0"
  },
  "bufferViews": [
    {
      "buffer": 0,
      "byteLength": 572544,
      "name": "floatBufferViews",
      "target": 34963
    },
    {
      "buffer": 0,
      "byteLength": 229008,
      "byteOffset": 572544,
      "byteStride": 8,
      "name": "floatBufferViews",
      "target": 34962
    },
    {
      "buffer": 0,
      "byteLength": 687024,
      "byteOffset": 801552,
      "byteStride": 12,
      "name": "floatBufferViews",
      "target": 34962
    },
    {
      "buffer": 0,
      "byteLength": 89536,
      "byteOffset": 1488576,
      "byteStride": 16,
      "name": "floatBufferViews",
      "target": 34962
    }
  ],
  "buffers": [
    {
      "byteLength": 1578112,
      "uri": "e.bin"
    }
  ],
  "images": [
    {
      "uri": "textures/leaf_normal.jpeg"
    }
  ],
  "materials": [
    {
      "doubleSided": true,
      "name": "Material",
      "pbrMetallicRoughness": {
        "baseColorFactor": [
          0.494118,
          0.356863,
          0.0,
          1.0
        ],
        "metallicFactor": 0.0,
        "roughnessFactor": 0.4
      }
    },
    {
      "doubleSided": true,
      "name": "chain",
      "pbrMetallicRoughness": {
        "baseColorFactor": [
          0.647059,
          0.556863,
          0.0,
          1.0
        ],
        "metallicFactor": 0.0,
        "roughnessFactor": 0.4
      }
    },
    {
      "doubleSided": true,
      "name": "leaf",
      "normalTexture": {
        "index": 0
      },
      "pbrMetallicRoughness": {
        "baseColorFactor": [
          0.494118,
          0.356863,
          0.0,
          1.0
        ],
        "metallicFactor": 0.0,
        "roughnessFactor": 0.4
      }
    },
    {
      "doubleSided": true,
      "name": "ring2",
      "pbrMetallicRoughness": {
        "baseColorFactor": [
          0.494118,
          0.356863,
          0.0,
          1.0
        ],
        "metallicFactor": 0.0,
        "roughnessFactor": 0.4
      }
    },
    {
      "doubleSided": true,
      "name": "sheaf",
      "pbrMetallicRoughness": {
        "baseColorFactor": [
          0.494118,
          0.356863,
          0.0,
          1.0
        ],
        "metallicFactor": 0.0,
        "roughnessFactor": 0.4
      }
    },
    {
      "doubleSided": true,
      "name": "strip",
      "pbrMetallicRoughness": {
        "baseColorFactor": [
          0.0,
          0.266667,
          0.431373,
          1.0
        ],
        "metallicFactor": 0.0,
        "roughnessFactor": 0.4
      }
    }
  ],
  "meshes": [
    {
      "name": "Object_0",
      "primitives": [
        {
          "attributes": {
            "NORMAL": 1,
            "POSITION": 0,
            "TEXCOORD_0": 2
          },
          "indices": 3,
          "material": 0,
          "mode": 4
        }
      ]
    },
    {
      "name": "Object_1",
      "primitives": [
        {
          "attributes": {
            "NORMAL": 5,
            "POSITION": 4,
            "TEXCOORD_0": 6
          },
          "indices": 7,
          "material": 1,
          "mode": 4
        }
      ]
    },
    {
      "name": "Object_2",
      "primitives": [
        {
          "attributes": {
            "NORMAL": 9,
            "POSITION": 8,
            "TANGENT": 10,
            "TEXCOORD_0": 11
          },
          "indices": 12,
          "material": 2,
          "mode": 4
        }
      ]
    },
    {
      "name": "Object_3",
      "primitives": [
        {
          "attributes": {
            "NORMAL": 14,
            "POSITION": 13,
            "TEXCOORD_0": 15
          },
          "indices": 16,
          "material": 3,
          "mode": 4
        }
      ]
    },
    {
      "name": "Object_4",
      "primitives": [
        {
          "attributes": {
            "NORMAL": 18,
            "POSITION": 17,
            "TEXCOORD_0": 19
          },
          "indices": 20,
          "material": 4,
          "mode": 4
        }
      ]
    },
    {
      "name": "Object_5",
      "primitives": [
        {
          "attributes": {
            "NORMAL": 22,
            "POSITION": 21,
            "TEXCOORD_0": 23
          },
          "indices": 24,
          "material": 5,
          "mode": 4
        }
      ]
    }
  ],
  "nodes": [
    {
      "children": [
        1
      ],
      "matrix": [
        1.0,
        0.0,
        0.0,
        0.0,
        0.0,
        2.220446049250313e-16,
        -1.0,
        0.0,
        0.0,
        1.0,
        2.220446049250313e-16,
        0.0,
        0.0,
        0.0,
        0.0,
        1.0
      ],
      "name": "Sketchfab_model"
    },
    {
      "children": [
        2,
        3,
        4,
        5,
        6,
        7
      ],
      "name": "cornnecklace.obj.cleaner.materialmerger.gles"
    },
    {
      "mesh": 0,
      "name": "Object_2"
    },
    {
      "mesh": 1,
      "name": "Object_3"
    },
    {
      "mesh": 2,
      "name": "Object_4"
    },
    {
      "mesh": 3,
      "name": "Object_5"
    },
    {
      "mesh": 4,
      "name": "Object_6"
    },
    {
      "mesh": 5,
      "name": "Object_7"
    }
  ],
  "samplers": [
    {
      "magFilter": 9729,
      "minFilter": 9987,
      "wrapS": 10497,
      "wrapT": 10497
    }
  ],
  "scene": 0,
  "scenes": [
    {
      "name": "Sketchfab_Scene",
      "nodes": [
        0
      ]
    }
  ],
  "textures": [
    {
      "sampler": 0,
      "source": 0
    }
  ]
}
