{
  "accessors": [
    {
      "bufferView": 2,
      "componentType": 5126,
      "count": 2416,
      "max": [
        35.16360092163086,
        35.07040023803711,
        71.22850036621094
      ],
      "min": [
        -35.16360092163086,
        -126.4260025024414,
        26.79290008544922
      ],
      "type": "VEC3"
    },
    {
      "bufferView": 2,
      "byteOffset": 28992,
      "componentType": 5126,
      "count": 2416,
      "max": [
        0.9999992251396179,
        0.07881300151348114,
        0.9655540585517883
      ],
      "min": [
        -0.9999992847442627,
        -0.48572635650634766,
        -0.08821224421262741
      ],
      "type": "VEC3"
    },
    {
      "bufferView": 1,
      "componentType": 5126,
      "count": 2416,
      "max": [
        0.0,
        0.0
      ],
      "min": [
        0.0,
        0.0
      ],
      "type": "VEC2"
    },
    {
      "bufferView": 0,
      "componentType": 5125,
      "count": 13248,
      "type": "SCALAR"
    },
    {
      "bufferView": 2,
      "byteOffset": 57984,
      "componentType": 5126,
      "count": 33596,
      "max": [
        53.79309844970703,
        97.87190246582031,
        82.25910186767578
      ],
      "min": [
        -53.792999267578125,
        -213.2100067138672,
        -18.18910026550293
      ],
      "type": "VEC3"
    },
    {
      "bufferView": 2,
      "byteOffset": 461136,
      "componentType": 5126,
      "count": 33596,
      "max": [
        1.0,
        1.0,
        1.0
      ],
      "min": [
        -1.0,
        -1.0,
        -1.0
      ],
      "type": "VEC3"
    },
    {
      "bufferView": 1,
      "byteOffset": 19328,
      "componentType": 5126,
      "count": 33596,
      "max": [
        1.0,
        1.0
      ],
      "min": [
        0.0,
        0.0
      ],
      "type": "VEC2"
    },
    {
      "bufferView": 0,
      "byteOffset": 52992,
      "componentType": 5125,
      "count": 189078,
      "type": "SCALAR"
    },
    {
      "bufferView": 2,
      "byteOffset": 864288,
      "componentType": 5126,
      "count": 725,
      "max": [
        23.2052001953125,
        -140.7050018310547,
        35.81380081176758
      ],
      "min": [
        -23.205299377441406,
        -180.46099853515625,
        31.97610092163086
      ],
      "type": "VEC3"
    },
    {
      "bufferView": 2,
      "byteOffset": 872988,
      "componentType": 5126,
      "count": 725,
      "max": [
        0.9869564771652222,
        0.9647898077964783,
        0.99855637550354
      ],
      "min": [
        -0.9875140190124512,
        -0.9148121476173401,
        -0.9997852444648743
      ],
      "type": "VEC3"
    },
    {
      "bufferView": 1,
      "byteOffset": 288096,
      "componentType": 5126,
      "count": 725,
      "max": [
        1.0,
        1.0
      ],
      "min": [
        -1.663110005267754e-08,
        7.574330140869279e-08
      ],
      "type": "VEC2"
    },
    {
      "bufferView": 0,
      "byteOffset": 809304,
      "componentType": 5125,
      "count": 4224,
      "type": "SCALAR"
    },
    {
      "bufferView": 2,
      "byteOffset": 881688,
      "componentType": 5126,
      "count": 25,
      "max": [
        5.491650104522705,
        38.501399993896484,
        54.692298889160156
      ],
      "min": [
        -5.491620063781738,
        35.37260055541992,
        34.07609939575195
      ],
      "type": "VEC3"
    },
    {
      "bufferView": 2,
      "byteOffset": 881988,
      "componentType": 5126,
      "count": 25,
      "max": [
        0.3257777690887451,
        0.999606192111969,
        0.2443603277206421
      ],
      "min": [
        -0.31390640139579773,
        0.9235064387321472,
        -0.06886806339025497
      ],
      "type": "VEC3"
    },
    {
      "bufferView": 1,
      "byteOffset": 293896,
      "componentType": 5126,
      "count": 25,
      "max": [
        1.0,
        1.0
      ],
      "min": [
        1.606160004996582e-08,
        4.011049981045289e-08
      ],
      "type": "VEC2"
    },
    {
      "bufferView": 0,
      "byteOffset": 826200,
      "componentType": 5125,
      "count": 96,
      "type": "SCALAR"
    },
    {
      "bufferView": 2,
      "byteOffset": 882288,
      "componentType": 5126,
      "count": 521,
      "max": [
        8.94159984588623,
        -122.58799743652344,
        44.02859878540039
      ],
      "min": [
        -8.941720008850098,
        -152.01600646972656,
        34.2781982421875
      ],
      "type": "VEC3"
    },
    {
      "bufferView": 2,
      "byteOffset": 888540,
      "componentType": 5126,
      "count": 521,
      "max": [
        0.9896507859230042,
        -0.041306737810373306,
        0.9894256591796875
      ],
      "min": [
        -0.9896548986434937,
        -0.9997570514678955,
        -0.02203991450369358
      ],
      "type": "VEC3"
    },
    {
      "bufferView": 1,
      "byteOffset": 294096,
      "componentType": 5126,
      "count": 521,
      "max": [
        0.78581702709198,
        0.6472560167312622
      ],
      "min": [
        0.6908220052719116,
        0.5492709875106812
      ],
      "type": "VEC2"
    },
    {
      "bufferView": 0,
      "byteOffset": 826584,
      "componentType": 5125,
      "count": 2880,
      "type": "SCALAR"
    },
    {
      "bufferView": 2,
      "byteOffset": 894792,
      "componentType": 5126,
      "count": 1612,
      "max": [
        25.434900283813477,
        -134.86599731445313,
        36.25849914550781
      ],
      "min": [
        -25.434999465942383,
        -207.36700439453125,
        25.063899993896484
      ],
      "type": "VEC3"
    },
    {
      "bufferView": 2,
      "byteOffset": 914136,
      "componentType": 5126,
      "count": 1612,
      "max": [
        0.9974411725997925,
        0.5918987989425659,
        0.9999929666519165
      ],
      "min": [
        -0.9975692629814148,
        -0.9999864101409912,
        -0.9959139227867126
      ],
      "type": "VEC3"
    },
    {
      "bufferView": 1,
      "byteOffset": 298264,
      "componentType": 5126,
      "count": 1612,
      "max": [
        1.0,
        1.0
      ],
      "min": [
        1.5086300209077308e-08,
        0.7194679975509644
      ],
      "type": "VEC2"
    },
    {
      "bufferView": 0,
      "byteOffset": 838104,
      "componentType": 5125,
      "count": 9216,
      "type": "SCALAR"
    },
    {
      "bufferView": 2,
      "byteOffset": 933480,
      "componentType": 5126,
      "count": 289,
      "max": [
        17.1825008392334,
        67.54850006103516,
        35.27730178833008
      ],
      "min": [
        -17.1825008392334,
        37.933101654052734,
        31.9822998046875
      ],
      "type": "VEC3"
    },
    {
      "bufferView": 2,
      "byteOffset": 936948,
      "componentType": 5126,
      "count": 289,
      "max": [
        0.2673678696155548,
        0.32119613885879517,
        0.9998945593833923
      ],
      "min": [
        -0.2847859859466553,
        -0.12729139626026154,
        0.9466801881790161
      ],
      "type": "VEC3"
    },
    {
      "bufferView": 1,
      "byteOffset": 311160,
      "componentType": 5126,
      "count": 289,
      "max": [
        1.0,
        1.0
      ],
      "min": [
        -1.0674000350263668e-08,
        1.2319000042282369e-08
      ],
      "type": "VEC2"
    },
    {
      "bufferView": 0,
      "byteOffset": 874968,
      "componentType": 5125,
      "count": 1536,
      "type": "SCALAR"
    }
  ],
  "asset": {
    "extras": {
      "author": "Gamefox Dev (https://sketchfab.com/Gamefox)",
      "license": "CC-BY-4.0 (http://creativecommons.org/licenses/by/4.0/)",
      "source": "https://sketchfab.com/3d-models/low-poly-fantasy-yacht-free-5e276c56f01940288e9439e8c8978329",
      "title": "Low Poly Fantasy Yacht (FREE)"
    },
    "generator": "Sketchfab-12.68.0",
    "version": "2.0"
  },
  "bufferViews": [
    {
      "buffer": 0,
      "byteLength": 881112,
      "name": "floatBufferViews",
      "target": 34963
    },
    {
      "buffer": 0,
      "byteLength": 313472,
      "byteOffset": 881112,
      "byteStride": 8,
      "name": "floatBufferViews",
      "target": 34962
    },
    {
      "buffer": 0,
      "byteLength": 940416,
      "byteOffset": 1194584,
      "byteStride": 12,
      "name": "floatBufferViews",
      "target": 34962
    }
  ],
  "buffers": [
    {
      "byteLength": 2135000,
      "uri": "scene.bin"
    }
  ],
  "extensionsUsed": [
    "KHR_materials_unlit"
  ],
  "images": [
    {
      "uri": "textures/default_baseColor.jpeg"
    }
  ],
  "materials": [
    {
      "doubleSided": true,
      "extensions": {
        "KHR_materials_unlit": {}
      },
      "name": "default",
      "pbrMetallicRoughness": {
        "baseColorTexture": {
          "index": 0
        },
        "metallicFactor": 0.0
      }
    },
    {
      "doubleSided": true,
      "extensions": {
        "KHR_materials_unlit": {}
      },
      "name": "default_boat_body2",
      "pbrMetallicRoughness": {
        "baseColorTexture": {
          "index": 0
        },
        "metallicFactor": 0.0
      }
    },
    {
      "doubleSided": true,
      "extensions": {
        "KHR_materials_unlit": {}
      },
      "name": "default_cushions",
      "pbrMetallicRoughness": {
        "metallicFactor": 0.0
      }
    },
    {
      "doubleSided": true,
      "extensions": {
        "KHR_materials_unlit": {}
      },
      "name": "default_door",
      "pbrMetallicRoughness": {
        "metallicFactor": 0.0
      }
    },
    {
      "doubleSided": true,
      "extensions": {
        "KHR_materials_unlit": {}
      },
      "name": "default_front_door",
      "pbrMetallicRoughness": {
        "metallicFactor": 0.0
      }
    },
    {
      "doubleSided": true,
      "extensions": {
        "KHR_materials_unlit": {}
      },
      "name": "default_front_floor",
      "pbrMetallicRoughness": {
        "metallicFactor": 0.0
      }
    },
    {
      "doubleSided": true,
      "extensions": {
        "KHR_materials_unlit": {}
      },
      "name": "default_rear_floor",
      "pbrMetallicRoughness": {
        "metallicFactor": 0.0
      }
    }
  ],
  "meshes": [
    {
      "name": "Object_0",
      "primitives": [
        {
          "attributes": {
            "NORMAL": 1,
            "POSITION": 0,
            "TEXCOORD_0": 2
          },
          "indices": 3,
          "material": 0,
          "mode": 4
        }
      ]
    },
    {
      "name": "Object_1",
      "primitives": [
        {
          "attributes": {
            "NORMAL": 5,
            "POSITION": 4,
            "TEXCOORD_0": 6
          },
          "indices": 7,
          "material": 1,
          "mode": 4
        }
      ]
    },
    {
      "name": "Object_2",
      "primitives": [
        {
          "attributes": {
            "NORMAL": 9,
            "POSITION": 8,
            "TEXCOORD_0": 10
          },
          "indices": 11,
          "material": 2,
          "mode": 4
        }
      ]
    },
    {
      "name": "Object_3",
      "primitives": [
        {
          "attributes": {
            "NORMAL": 13,
            "POSITION": 12,
            "TEXCOORD_0": 14
          },
          "indices": 15,
          "material": 3,
          "mode": 4
        }
      ]
    },
    {
      "name": "Object_4",
      "primitives": [
        {
          "attributes": {
            "NORMAL": 17,
            "POSITION": 16,
            "TEXCOORD_0": 18
          },
          "indices": 19,
          "material": 4,
          "mode": 4
        }
      ]
    },
    {
      "name": "Object_5",
      "primitives": [
        {
          "attributes": {
            "NORMAL": 21,
            "POSITION": 20,
            "TEXCOORD_0": 22
          },
          "indices": 23,
          "material": 5,
          "mode": 4
        }
      ]
    },
    {
      "name": "Object_6",
      "primitives": [
        {
          "attributes": {
            "NORMAL": 25,
            "POSITION": 24,
            "TEXCOORD_0": 26
          },
          "indices": 27,
          "material": 6,
          "mode": 4
        }
      ]
    }
  ],
  "nodes": [
    {
      "children": [
        1
      ],
      "matrix": [
        0.0925045982003212,
        0.0,
        0.0,
        0.0,
        0.0,
        2.0540146961139082e-17,
        -0.0925045982003212,
        0.0,
        0.0,
        0.0925045982003212,
        2.0540146961139082e-17,
        0.0,
        0.0,
        0.0,
        0.0,
        1.0
      ],
      "name": "Sketchfab_model"
    },
    {
      "children": [
        2,
        3,
        4,
        5,
        6,
        7,
        8
      ],
      "name": "Fantasy yatch.obj.cleaner.materialmerger.gles"
    },
    {
      "mesh": 0,
      "name": "Object_2"
    },
    {
      "mesh": 1,
      "name": "Object_3"
    },
    {
      "mesh": 2,
      "name": "Object_4"
    },
    {
      "mesh": 3,
      "name": "Object_5"
    },
    {
      "mesh": 4,
      "name": "Object_6"
    },
    {
      "mesh": 5,
      "name": "Object_7"
    },
    {
      "mesh": 6,
      "name": "Object_8"
    }
  ],
  "samplers": [
    {
      "magFilter": 9729,
      "minFilter": 9987,
      "wrapS": 10497,
      "wrapT": 10497
    }
  ],
  "scene": 0,
  "scenes": [
    {
      "name": "Sketchfab_Scene",
      "nodes": [
        0
      ]
    }
  ],
  "textures": [
    {
      "sampler": 0,
      "source": 0
    }
  ]
}
