{
  "accessors": [
    {
      "bufferView": 2,
      "componentType": 5126,
      "count": 349,
      "max": [
        63.68406677246094,
        212.1555633544922,
        54.6341438293457
      ],
      "min": [
        -88.35565185546875,
        -0.01822441816329956,
        -54.50688171386719
      ],
      "type": "VEC3"
    },
    {
      "bufferView": 2,
      "byteOffset": 4188,
      "componentType": 5126,
      "count": 349,
      "max": [
        0.9998188614845276,
        0.9991135001182556,
        0.9947922229766846
      ],
      "min": [
        -0.9996427893638611,
        -0.9991135001182556,
        -0.9999904632568359
      ],
      "type": "VEC3"
    },
    {
      "bufferView": 1,
      "componentType": 5126,
      "count": 349,
      "max": [
        0.9984840750694275,
        0.9997828602790833
      ],
      "min": [
        0.007145240902900696,
        -9.752297773957253e-05
      ],
      "type": "VEC2"
    },
    {
      "bufferView": 1,
      "byteOffset": 2792,
      "componentType": 5126,
      "count": 349,
      "max": [
        0.9984840750694275,
        0.9997828602790833
      ],
      "min": [
        0.007145240902900696,
        -9.752297773957253e-05
      ],
      "type": "VEC2"
    },
    {
      "bufferView": 0,
      "componentType": 5125,
      "count": 1617,
      "type": "SCALAR"
    },
    {
      "bufferView": 2,
      "byteOffset": 8376,
      "componentType": 5126,
      "count": 495,
      "max": [
        90.05380249023438,
        272.5617370605469,
        111.82147216796875
      ],
      "min": [
        -93.99437713623047,
        -0.018224630504846573,
        -81.02603912353516
      ],
      "type": "VEC3"
    },
    {
      "bufferView": 2,
      "byteOffset": 14316,
      "componentType": 5126,
      "count": 495,
      "max": [
        0.9983799457550049,
        0.9991135597229004,
        0.9999899864196777
      ],
      "min": [
        -0.9985753893852234,
        -0.9991135597229004,
        -0.9954531788825989
      ],
      "type": "VEC3"
    },
    {
      "bufferView": 1,
      "byteOffset": 5584,
      "componentType": 5126,
      "count": 495,
      "max": [
        0.9984840750694275,
        0.9997828602790833
      ],
      "min": [
        0.007145240902900696,
        -9.752297773957253e-05
      ],
      "type": "VEC2"
    },
    {
      "bufferView": 1,
      "byteOffset": 9544,
      "componentType": 5126,
      "count": 495,
      "max": [
        0.9984840750694275,
        0.9997828602790833
      ],
      "min": [
        0.007145240902900696,
        -9.752297773957253e-05
      ],
      "type": "VEC2"
    },
    {
      "bufferView": 0,
      "byteOffset": 6468,
      "componentType": 5125,
      "count": 2301,
      "type": "SCALAR"
    }
  ],
  "asset": {
    "extras": {
      "author": "sujirour (https://sketchfab.com/sujirour)",
      "license": "CC-BY-4.0 (http://creativecommons.org/licenses/by/4.0/)",
      "source": "https://sketchfab.com/3d-models/chinese-rose-eaee5c918ab74563867f445569eb65bc",
      "title": "Chinese Rose"
    },
    "generator": "Sketchfab-12.65.0",
    "version": "2.0"
  },
  "bufferViews": [
    {
      "buffer": 0,
      "byteLength": 15672,
      "name": "floatBufferViews",
      "target": 34963
    },
    {
      "buffer": 0,
      "byteLength": 13504,
      "byteOffset": 15672,
      "byteStride": 8,
      "name": "floatBufferViews",
      "target": 34962
    },
    {
      "buffer": 0,
      "byteLength": 20256,
      "byteOffset": 29176,
      "byteStride": 12,
      "name": "floatBufferViews",
      "target": 34962
    }
  ],
  "buffers": [
    {
      "byteLength": 49432,
      "uri": "scene.bin"
    }
  ],
  "extensionsUsed": [
    "KHR_materials_unlit"
  ],
  "images": [
    {
      "uri": "textures/chinese_rose_mat_baseColor.png"
    }
  ],
  "materials": [
    {
      "alphaMode": "MASK",
      "emissiveFactor": [
        0.002886329082288273,
        0.002886329082288273,
        0.002886329082288273
      ],
      "extensions": {
        "KHR_materials_unlit": {}
      },
      "name": "chinese_rose_mat",
      "pbrMetallicRoughness": {
        "baseColorTexture": {
          "index": 0
        },
        "metallicFactor": 0.0
      }
    }
  ],
  "meshes": [
    {
      "name": "chinese_rose_small_chinese_rose_mat_0",
      "primitives": [
        {
          "attributes": {
            "NORMAL": 1,
            "POSITION": 0,
            "TEXCOORD_0": 2,
            "TEXCOORD_1": 3
          },
          "indices": 4,
          "material": 0,
          "mode": 4
        }
      ]
    },
    {
      "name": "chinese_rose_chinese_rose_mat_0",
      "primitives": [
        {
          "attributes": {
            "NORMAL": 6,
            "POSITION": 5,
            "TEXCOORD_0": 7,
            "TEXCOORD_1": 8
          },
          "indices": 9,
          "material": 0,
          "mode": 4
        }
      ]
    }
  ],
  "nodes": [
    {
      "children": [
        1
      ],
      "matrix": [
        1.0,
        0.0,
        0.0,
        0.0,
        0.0,
        2.220446049250313e-16,
        -1.0,
        0.0,
        0.0,
        1.0,
        2.220446049250313e-16,
        0.0,
        0.0,
        0.0,
        0.0,
        1.0
      ],
      "name": "Sketchfab_model"
    },
    {
      "children": [
        2
      ],
      "matrix": [
        1.0,
        0.0,
        0.0,
        0.0,
        0.0,
        0.0,
        1.0,
        0.0,
        0.0,
        -1.0,
        0.0,
        0.0,
        0.0,
        0.0,
        0.0,
        1.0
      ],
      "name": "chinese rose.fbx"
    },
    {
      "children": [
        3,
        5
      ],
      "name": "RootNode"
    },
    {
      "children": [
        4
      ],
      "matrix": [
        0.009999999776482582,
        0.0,
        0.0,
        0.0,
        0.0,
        0.009999999776482582,
        0.0,
        0.0,
        0.0,
        0.0,
        0.009999999776482582,
        0.0,
        -0.19692140817642212,
        0.0,
        0.0,
        1.0
      ],
      "name": "chinese_rose_small"
    },
    {
      "mesh": 0,
      "name": "chinese_rose_small_chinese_rose_mat_0"
    },
    {
      "children": [
        6
      ],
      "matrix": [
        0.009999999776482582,
        0.0,
        0.0,
        0.0,
        0.0,
        0.009999999776482582,
        0.0,
        0.0,
        0.0,
        0.0,
        0.009999999776482582,
        0.0,
        0.19982022047042847,
        0.0,
        0.0,
        1.0
      ],
      "name": "chinese_rose"
    },
    {
      "mesh": 1,
      "name": "chinese_rose_chinese_rose_mat_0"
    }
  ],
  "samplers": [
    {
      "magFilter": 9729,
      "minFilter": 9987,
      "wrapS": 10497,
      "wrapT": 10497
    }
  ],
  "scene": 0,
  "scenes": [
    {
      "name": "Sketchfab_Scene",
      "nodes": [
        0
      ]
    }
  ],
  "textures": [
    {
      "sampler": 0,
      "source": 0
    }
  ]
}
