{
  "accessors": [
    {
      "bufferView": 2,
      "componentType": 5126,
      "count": 2136,
      "max": [
        12.275556564331055,
        21.285356521606445,
        1.995967984199524
      ],
      "min": [
        -5.555901050567627,
        -0.33659499883651733,
        -3.8148860931396484
      ],
      "type": "VEC3"
    },
    {
      "bufferView": 2,
      "byteOffset": 25632,
      "componentType": 5126,
      "count": 2136,
      "max": [
        0.999928891658783,
        0.99983149766922,
        0.9999815821647644
      ],
      "min": [
        -0.9994601607322693,
        -0.9999885559082031,
        -0.9990730881690979
      ],
      "type": "VEC3"
    },
    {
      "bufferView": 3,
      "componentType": 5126,
      "count": 2136,
      "max": [
        1.0,
        0.9999179840087891,
        0.9997434616088867,
        1.0
      ],
      "min": [
        -0.9999455809593201,
        -0.9974396824836731,
        -0.9978804588317871,
        -1.0
      ],
      "type": "VEC4"
    },
    {
      "bufferView": 1,
      "componentType": 5126,
      "count": 2136,
      "max": [
        0.978971004486084,
        0.991159975528717
      ],
      "min": [
        0.010660000145435333,
        0.018635999411344528
      ],
      "type": "VEC2"
    },
    {
      "bufferView": 0,
      "componentType": 5125,
      "count": 10164,
      "type": "SCALAR"
    },
    {
      "bufferView": 2,
      "byteOffset": 51264,
      "componentType": 5126,
      "count": 5122,
      "max": [
        16.927064895629883,
        24.71112060546875,
        3.8306729793548584
      ],
      "min": [
        -15.44056510925293,
        -0.008088000118732452,
        -3.5374538898468018
      ],
      "type": "VEC3"
    },
    {
      "bufferView": 2,
      "byteOffset": 112728,
      "componentType": 5126,
      "count": 5122,
      "max": [
        0.9989572763442993,
        0.9996009469032288,
        0.9998816251754761
      ],
      "min": [
        -0.9998641610145569,
        -0.999931275844574,
        -0.999853789806366
      ],
      "type": "VEC3"
    },
    {
      "bufferView": 3,
      "byteOffset": 34176,
      "componentType": 5126,
      "count": 5122,
      "max": [
        0.9992480874061584,
        0.9981913566589355,
        0.9998021721839905,
        1.0
      ],
      "min": [
        -0.9999099969863892,
        -0.9984907507896423,
        -0.9993636012077332,
        -1.0
      ],
      "type": "VEC4"
    },
    {
      "bufferView": 1,
      "byteOffset": 17088,
      "componentType": 5126,
      "count": 5122,
      "max": [
        0.9776269793510437,
        0.9336069822311401
      ],
      "min": [
        0.028798000887036324,
        0.019610999152064323
      ],
      "type": "VEC2"
    },
    {
      "bufferView": 1,
      "byteOffset": 58064,
      "componentType": 5126,
      "count": 5122,
      "max": [
        0.9776269793510437,
        0.9336069822311401
      ],
      "min": [
        0.028798000887036324,
        0.019610999152064323
      ],
      "type": "VEC2"
    },
    {
      "bufferView": 0,
      "byteOffset": 40656,
      "componentType": 5125,
      "count": 26931,
      "type": "SCALAR"
    },
    {
      "bufferView": 2,
      "byteOffset": 174192,
      "componentType": 5126,
      "count": 1087,
      "max": [
        0.6373180150985718,
        21.956819534301758,
        3.3234620094299316
      ],
      "min": [
        -0.6600549817085266,
        19.403898239135742,
        -0.5260270237922668
      ],
      "type": "VEC3"
    },
    {
      "bufferView": 2,
      "byteOffset": 187236,
      "componentType": 5126,
      "count": 1087,
      "max": [
        0.9994316101074219,
        0.998839259147644,
        0.99973064661026
      ],
      "min": [
        -0.9988864064216614,
        -0.9998544454574585,
        -0.9999721050262451
      ],
      "type": "VEC3"
    },
    {
      "bufferView": 1,
      "byteOffset": 99040,
      "componentType": 5126,
      "count": 1087,
      "max": [
        0.964792013168335,
        0.9900000095367432
      ],
      "min": [
        0.009999999776482582,
        0.03449000045657158
      ],
      "type": "VEC2"
    },
    {
      "bufferView": 1,
      "byteOffset": 107736,
      "componentType": 5126,
      "count": 1087,
      "max": [
        0.964792013168335,
        0.9900000095367432
      ],
      "min": [
        0.009999999776482582,
        0.03449000045657158
      ],
      "type": "VEC2"
    },
    {
      "bufferView": 0,
      "byteOffset": 148380,
      "componentType": 5125,
      "count": 4680,
      "type": "SCALAR"
    },
    {
      "bufferView": 2,
      "byteOffset": 200280,
      "componentType": 5126,
      "count": 312,
      "max": [
        0.7597389817237854,
        23.433345794677734,
        3.55416202545166
      ],
      "min": [
        -0.8013619780540466,
        22.95380973815918,
        3.161247968673706
      ],
      "type": "VEC3"
    },
    {
      "bufferView": 2,
      "byteOffset": 204024,
      "componentType": 5126,
      "count": 312,
      "max": [
        0.9967393279075623,
        0.9969778656959534,
        0.9963575601577759
      ],
      "min": [
        -0.9967387318611145,
        -0.9972678422927856,
        -0.3182990550994873
      ],
      "type": "VEC3"
    },
    {
      "bufferView": 1,
      "byteOffset": 116432,
      "componentType": 5126,
      "count": 312,
      "max": [
        0.9394490122795105,
        0.9550920128822327
      ],
      "min": [
        0.01811799965798855,
        0.07278499752283096
      ],
      "type": "VEC2"
    },
    {
      "bufferView": 1,
      "byteOffset": 118928,
      "componentType": 5126,
      "count": 312,
      "max": [
        0.9394490122795105,
        0.9550920128822327
      ],
      "min": [
        0.01811799965798855,
        0.07278499752283096
      ],
      "type": "VEC2"
    },
    {
      "bufferView": 0,
      "byteOffset": 167100,
      "componentType": 5125,
      "count": 1740,
      "type": "SCALAR"
    }
  ],
  "asset": {
    "extras": {
      "author": "vera_grande (https://sketchfab.com/vera_grande)",
      "license": "CC-BY-4.0 (http://creativecommons.org/licenses/by/4.0/)",
      "source": "https://sketchfab.com/3d-models/zombie-boss1-11febec406e248cbbafef450304b683a",
      "title": "Zombie-Boss1"
    },
    "generator": "Sketchfab-12.68.0",
    "version": "2.0"
  },
  "bufferViews": [
    {
      "buffer": 0,
      "byteLength": 174060,
      "name": "floatBufferViews",
      "target": 34963
    },
    {
      "buffer": 0,
      "byteLength": 121424,
      "byteOffset": 174060,
      "byteStride": 8,
      "name": "floatBufferViews",
      "target": 34962
    },
    {
      "buffer": 0,
      "byteLength": 207768,
      "byteOffset": 295484,
      "byteStride": 12,
      "name": "floatBufferViews",
      "target": 34962
    },
    {
      "buffer": 0,
      "byteLength": 116128,
      "byteOffset": 503252,
      "byteStride": 16,
      "name": "floatBufferViews",
      "target": 34962
    }
  ],
  "buffers": [
    {
      "byteLength": 619380,
      "uri": "scene.bin"
    }
  ],
  "images": [
    {
      "uri": "textures/cloth_baseColor.png"
    },
    {
      "uri": "textures/cloth_metallicRoughness.png"
    },
    {
      "uri": "textures/cloth_normal.png"
    },
    {
      "uri": "textures/teeth_baseColor.png"
    },
    {
      "uri": "textures/teeth_metallicRoughness.png"
    },
    {
      "uri": "textures/eyes_baseColor.png"
    },
    {
      "uri": "textures/eyes_metallicRoughness.png"
    }
  ],
  "materials": [
    {
      "doubleSided": true,
      "name": "cloth",
      "normalTexture": {
        "index": 2,
        "scale": 0.830983231707317
      },
      "occlusionTexture": {
        "index": 1
      },
      "pbrMetallicRoughness": {
        "baseColorTexture": {
          "index": 0
        },
        "metallicFactor": 0.0,
        "metallicRoughnessTexture": {
          "index": 1
        },
        "roughnessFactor": 0.7761051829268293
      }
    },
    {
      "doubleSided": true,
      "name": "body",
      "normalTexture": {
        "index": 2,
        "scale": 0.5626905487804879
      },
      "occlusionTexture": {
        "index": 1
      },
      "pbrMetallicRoughness": {
        "baseColorTexture": {
          "index": 0
        },
        "metallicFactor": 0.0,
        "metallicRoughnessTexture": {
          "index": 1
        },
        "roughnessFactor": 0.42511432926829273
      }
    },
    {
      "doubleSided": true,
      "name": "teeth",
      "occlusionTexture": {
        "index": 4
      },
      "pbrMetallicRoughness": {
        "baseColorTexture": {
          "index": 3
        },
        "metallicFactor": 0.0,
        "metallicRoughnessTexture": {
          "index": 4
        },
        "roughnessFactor": 0.2543826219512195
      }
    },
    {
      "doubleSided": true,
      "emissiveFactor": [
        1.0,
        1.0,
        1.0
      ],
      "emissiveTexture": {
        "index": 5
      },
      "name": "eyes",
      "occlusionTexture": {
        "index": 6
      },
      "pbrMetallicRoughness": {
        "baseColorTexture": {
          "index": 5
        },
        "metallicFactor": 0.0,
        "metallicRoughnessTexture": {
          "index": 6
        },
        "roughnessFactor": 0.12023628048780488
      }
    }
  ],
  "meshes": [
    {
      "name": "male1591.obj.000_cloth_0",
      "primitives": [
        {
          "attributes": {
            "NORMAL": 1,
            "POSITION": 0,
            "TANGENT": 2,
            "TEXCOORD_0": 3
          },
          "indices": 4,
          "material": 0,
          "mode": 4
        }
      ]
    },
    {
      "name": "male1591.obj.000_body_0",
      "primitives": [
        {
          "attributes": {
            "NORMAL": 6,
            "POSITION": 5,
            "TANGENT": 7,
            "TEXCOORD_0": 8,
            "TEXCOORD_1": 9
          },
          "indices": 10,
          "material": 1,
          "mode": 4
        }
      ]
    },
    {
      "name": "high-poly.obj.001_teeth_0",
      "primitives": [
        {
          "attributes": {
            "NORMAL": 12,
            "POSITION": 11,
            "TEXCOORD_0": 13,
            "TEXCOORD_1": 14
          },
          "indices": 15,
          "material": 2,
          "mode": 4
        }
      ]
    },
    {
      "name": "high-poly.obj.002_eyes_0",
      "primitives": [
        {
          "attributes": {
            "NORMAL": 17,
            "POSITION": 16,
            "TEXCOORD_0": 18,
            "TEXCOORD_1": 19
          },
          "indices": 20,
          "material": 3,
          "mode": 4
        }
      ]
    }
  ],
  "nodes": [
    {
      "children": [
        1
      ],
      "matrix": [
        0.09607209265232086,
        0.0,
        0.0,
        0.0,
        0.0,
        2.133228985730559e-17,
        -0.09607209265232086,
        0.0,
        0.0,
        0.09607209265232086,
        2.133228985730559e-17,
        0.0,
        0.0,
        0.0,
        0.0,
        1.0
      ],
      "name": "Sketchfab_model"
    },
    {
      "children": [
        2
      ],
      "matrix": [
        1.0,
        0.0,
        0.0,
        0.0,
        0.0,
        0.0,
        1.0,
        0.0,
        0.0,
        -1.0,
        0.0,
        0.0,
        0.0,
        0.0,
        0.0,
        1.0
      ],
      "name": "72137f30f7144bc09bd1001b563f98e0.fbx"
    },
    {
      "children": [
        3,
        6,
        8
      ],
      "name": "RootNode"
    },
    {
      "children": [
        4,
        5
      ],
      "matrix": [
        100.0,
        0.0,
        0.0,
        0.0,
        0.0,
        99.99999999999866,
        1.6292067073209114e-05,
        0.0,
        0.0,
        -1.6292067073209114e-05,
        99.99999999999866,
        0.0,
        0.0,
        0.0,
        0.0,
        1.0
      ],
      "name": "male1591.obj.000"
    },
    {
      "mesh": 0,
      "name": "male1591.obj.000_cloth_0"
    },
    {
      "mesh": 1,
      "name": "male1591.obj.000_body_0"
    },
    {
      "children": [
        7
      ],
      "matrix": [
        100.0,
        0.0,
        0.0,
        0.0,
        0.0,
        99.99999999999866,
        1.6292067073209114e-05,
        0.0,
        0.0,
        -1.6292067073209114e-05,
        99.99999999999866,
        0.0,
        0.0,
        0.0,
        0.0,
        1.0
      ],
      "name": "high-poly.obj.001"
    },
    {
      "mesh": 2,
      "name": "high-poly.obj.001_teeth_0"
    },
    {
      "children": [
        9
      ],
      "matrix": [
        100.0,
        0.0,
        0.0,
        0.0,
        0.0,
        99.99999999999866,
        1.6292067073209114e-05,
        0.0,
        0.0,
        -1.6292067073209114e-05,
        99.99999999999866,
        0.0,
        0.0,
        0.0,
        0.0,
        1.0
      ],
      "name": "high-poly.obj.002"
    },
    {
      "mesh": 3,
      "name": "high-poly.obj.002_eyes_0"
    }
  ],
  "samplers": [
    {
      "magFilter": 9729,
      "minFilter": 9987,
      "wrapS": 10497,
      "wrapT": 10497
    }
  ],
  "scene": 0,
  "scenes": [
    {
      "name": "Sketchfab_Scene",
      "nodes": [
        0
      ]
    }
  ],
  "textures": [
    {
      "sampler": 0,
      "source": 0
    },
    {
      "sampler": 0,
      "source": 1
    },
    {
      "sampler": 0,
      "source": 2
    },
    {
      "sampler": 0,
      "source": 3
    },
    {
      "sampler": 0,
      "source": 4
    },
    {
      "sampler": 0,
      "source": 5
    },
    {
      "sampler": 0,
      "source": 6
    }
  ]
}
